<svg width="625" height="635" viewBox="0 0 625 635" fill="none" xmlns="http://www.w3.org/2000/svg">
<path d="M284 388.438H385.5V303.688H284V388.438ZM298.5 317.812H371V374.312H298.5V317.812Z" fill="#ED5757"/>
<path d="M284 402.562H298.5V416.688H284V402.562Z" fill="#ED5757"/>
<path d="M313 402.562H327.5V416.688H313V402.562Z" fill="#ED5757"/>
<path d="M342 402.562H356.5V416.688H342V402.562Z" fill="#ED5757"/>
<path d="M371 402.562H385.5V416.688H371V402.562Z" fill="#ED5757"/>
<path d="M421.969 64.4871L429.712 52.5373L441.985 60.0838L434.242 72.0336L421.969 64.4871Z" fill="#ED5757"/>
<path d="M391.031 112.274L398.774 100.324L411.047 107.87L403.304 119.82L391.031 112.274Z" fill="#ED5757"/>
<path d="M406.494 88.3868L414.241 76.4311L426.514 83.9776L418.767 95.9334L406.494 88.3868Z" fill="#ED5757"/>
<path d="M522.068 122.082L453.498 16.3214C449.735 10.5231 443.29 7.0625 436.25 7.0625C429.21 7.0625 422.765 10.5231 418.995 16.3285L350.432 122.082C345.139 130.24 341.217 139.061 338.571 148.312H210.695C220.127 139.329 226 126.828 226 113C226 85.7388 203.228 63.5625 175.25 63.5625C147.272 63.5625 124.5 85.7388 124.5 113C124.5 127.457 130.945 140.445 141.131 149.492C111.051 155.142 88.25 180.948 88.25 211.875V275.438C88.25 291.017 101.256 303.688 117.25 303.688H124.5V416.688C124.5 432.267 137.506 444.938 153.5 444.938C162.207 444.938 169.928 441.11 175.25 435.177C180.572 441.11 188.293 444.938 197 444.938C212.994 444.938 226 432.267 226 416.688V204.812C226 200.921 229.248 197.75 233.25 197.75H313V220.731C291.953 224.531 272.298 234.475 257.124 249.257L255 251.326V409.625C255 429.096 271.262 444.938 291.25 444.938H378.25C398.238 444.938 414.5 429.096 414.5 409.625V273.1C421.612 274.618 428.884 275.438 436.25 275.438C492.22 275.438 537.75 231.085 537.75 176.562V174.882C537.75 156.159 532.327 137.902 522.068 122.082ZM182.261 230.372L175.25 237.201L168.239 230.372L173.793 162.438H176.707L182.261 230.372ZM139 113C139 93.5287 155.262 77.6875 175.25 77.6875C195.238 77.6875 211.5 93.5287 211.5 113C211.5 132.471 195.238 148.312 175.25 148.312C155.262 148.312 139 132.471 139 113ZM233.25 183.625C221.258 183.625 211.5 193.131 211.5 204.812V416.688C211.5 424.477 204.997 430.812 197 430.812C189.003 430.812 182.5 424.477 182.5 416.688V282.5H168V416.688C168 424.477 161.497 430.812 153.5 430.812C145.503 430.812 139 424.477 139 416.688V197.75H124.5V289.562H117.25C109.253 289.562 102.75 283.227 102.75 275.438V211.875C102.75 184.614 125.522 162.438 153.5 162.438H159.242L153.261 235.753L175.25 257.174L197.239 235.753L191.258 162.438H352.875C358.871 162.438 363.75 167.191 363.75 173.031C363.75 177.629 360.712 181.513 356.5 182.975V176.562H313V183.625H233.25ZM400 275.438H356.5V235.096C372.718 238.508 387.863 246.17 400 257.244V275.438ZM342 275.438H327.5V190.688H342V275.438ZM313 235.096V275.438H269.5V257.244C281.637 246.163 296.782 238.501 313 235.096ZM378.25 430.812H291.25C279.258 430.812 269.5 421.306 269.5 409.625V289.562H400V409.625C400 421.306 390.242 430.812 378.25 430.812ZM523.25 176.562C523.25 223.295 484.223 261.312 436.25 261.312C428.855 261.312 421.569 260.373 414.5 258.601V251.326L412.376 249.257C397.202 234.475 377.547 224.524 356.5 220.731V197.397C368.767 195.667 378.25 185.454 378.25 173.038C378.25 159.669 367.281 148.814 353.658 148.397C355.877 141.822 358.871 135.522 362.692 129.632L431.255 23.8713C433.452 20.5024 439.063 20.5095 441.245 23.8713L509.808 129.625C518.595 143.185 523.25 158.836 523.25 174.882V176.562Z" fill="#ED5757"/>
<path d="M465.25 120.062H421.75V148.312H392.75V190.688H421.75V218.938H465.25V190.688H494.25V148.312H465.25V120.062ZM479.75 162.438V176.562H450.75V204.812H436.25V176.562H407.25V162.438H436.25V134.188H450.75V162.438H479.75Z" fill="#ED5757"/>
<path d="M3.96 534.76C3.96 526.44 5.76 519.04 9.36 512.56C12.96 506 17.96 500.92 24.36 497.32C30.84 493.64 38.16 491.8 46.32 491.8C56.32 491.8 64.88 494.44 72 499.72C79.12 505 83.88 512.2 86.28 521.32H63.72C62.04 517.8 59.64 515.12 56.52 513.28C53.48 511.44 50 510.52 46.08 510.52C39.76 510.52 34.64 512.72 30.72 517.12C26.8 521.52 24.84 527.4 24.84 534.76C24.84 542.12 26.8 548 30.72 552.4C34.64 556.8 39.76 559 46.08 559C50 559 53.48 558.08 56.52 556.24C59.64 554.4 62.04 551.72 63.72 548.2H86.28C83.88 557.32 79.12 564.52 72 569.8C64.88 575 56.32 577.6 46.32 577.6C38.16 577.6 30.84 575.8 24.36 572.2C17.96 568.52 12.96 563.44 9.36 556.96C5.76 550.48 3.96 543.08 3.96 534.76ZM129.326 577.96C122.766 577.96 116.846 576.56 111.566 573.76C106.366 570.96 102.246 566.96 99.2063 561.76C96.2463 556.56 94.7663 550.48 94.7663 543.52C94.7663 536.64 96.2863 530.6 99.3262 525.4C102.366 520.12 106.526 516.08 111.806 513.28C117.086 510.48 123.006 509.08 129.566 509.08C136.126 509.08 142.046 510.48 147.326 513.28C152.606 516.08 156.766 520.12 159.806 525.4C162.846 530.6 164.366 536.64 164.366 543.52C164.366 550.4 162.806 556.48 159.686 561.76C156.646 566.96 152.446 570.96 147.086 573.76C141.806 576.56 135.886 577.96 129.326 577.96ZM129.326 560.2C133.246 560.2 136.566 558.76 139.286 555.88C142.086 553 143.486 548.88 143.486 543.52C143.486 538.16 142.126 534.04 139.406 531.16C136.766 528.28 133.486 526.84 129.566 526.84C125.566 526.84 122.246 528.28 119.606 531.16C116.966 533.96 115.646 538.08 115.646 543.52C115.646 548.88 116.926 553 119.486 555.88C122.126 558.76 125.406 560.2 129.326 560.2ZM216.053 509.32C223.893 509.32 230.133 511.88 234.773 517C239.493 522.04 241.853 529 241.853 537.88V577H221.453V540.64C221.453 536.16 220.293 532.68 217.973 530.2C215.653 527.72 212.533 526.48 208.613 526.48C204.693 526.48 201.573 527.72 199.253 530.2C196.933 532.68 195.773 536.16 195.773 540.64V577H175.253V510.04H195.773V518.92C197.853 515.96 200.653 513.64 204.173 511.96C207.693 510.2 211.653 509.32 216.053 509.32ZM293.432 559.6V577H282.992C275.552 577 269.752 575.2 265.592 571.6C261.432 567.92 259.352 561.96 259.352 553.72V527.08H251.192V510.04H259.352V493.72H279.872V510.04H293.312V527.08H279.872V553.96C279.872 555.96 280.352 557.4 281.312 558.28C282.272 559.16 283.872 559.6 286.112 559.6H293.432ZM325.382 521.2C327.782 517.52 330.782 514.64 334.382 512.56C337.982 510.4 341.982 509.32 346.382 509.32V531.04H340.742C335.622 531.04 331.782 532.16 329.222 534.4C326.662 536.56 325.382 540.4 325.382 545.92V577H304.862V510.04H325.382V521.2ZM386.67 577.96C380.11 577.96 374.19 576.56 368.91 573.76C363.71 570.96 359.59 566.96 356.55 561.76C353.59 556.56 352.11 550.48 352.11 543.52C352.11 536.64 353.63 530.6 356.67 525.4C359.71 520.12 363.87 516.08 369.15 513.28C374.43 510.48 380.35 509.08 386.91 509.08C393.47 509.08 399.39 510.48 404.67 513.28C409.95 516.08 414.11 520.12 417.15 525.4C420.19 530.6 421.71 536.64 421.71 543.52C421.71 550.4 420.15 556.48 417.03 561.76C413.99 566.96 409.79 570.96 404.43 573.76C399.15 576.56 393.23 577.96 386.67 577.96ZM386.67 560.2C390.59 560.2 393.91 558.76 396.63 555.88C399.43 553 400.83 548.88 400.83 543.52C400.83 538.16 399.47 534.04 396.75 531.16C394.11 528.28 390.83 526.84 386.91 526.84C382.91 526.84 379.59 528.28 376.95 531.16C374.31 533.96 372.99 538.08 372.99 543.52C372.99 548.88 374.27 553 376.83 555.88C379.47 558.76 382.75 560.2 386.67 560.2ZM453.116 488.2V577H432.596V488.2H453.116ZM523.907 519.4C522.387 516.6 520.187 514.48 517.307 513.04C514.507 511.52 511.187 510.76 507.347 510.76C500.707 510.76 495.387 512.96 491.387 517.36C487.387 521.68 485.387 527.48 485.387 534.76C485.387 542.52 487.467 548.6 491.627 553C495.867 557.32 501.667 559.48 509.027 559.48C514.067 559.48 518.307 558.2 521.747 555.64C525.267 553.08 527.827 549.4 529.427 544.6H503.387V529.48H548.027V548.56C546.507 553.68 543.907 558.44 540.227 562.84C536.627 567.24 532.027 570.8 526.427 573.52C520.827 576.24 514.507 577.6 507.467 577.6C499.147 577.6 491.707 575.8 485.147 572.2C478.667 568.52 473.587 563.44 469.907 556.96C466.307 550.48 464.507 543.08 464.507 534.76C464.507 526.44 466.307 519.04 469.907 512.56C473.587 506 478.667 500.92 485.147 497.32C491.627 493.64 499.027 491.8 507.347 491.8C517.427 491.8 525.907 494.24 532.787 499.12C539.747 504 544.347 510.76 546.587 519.4H523.907ZM579.913 488.2V577H559.393V488.2H579.913ZM605.104 503.08C601.504 503.08 598.544 502.04 596.224 499.96C593.984 497.8 592.864 495.16 592.864 492.04C592.864 488.84 593.984 486.2 596.224 484.12C598.544 481.96 601.504 480.88 605.104 480.88C608.624 480.88 611.504 481.96 613.744 484.12C616.064 486.2 617.224 488.84 617.224 492.04C617.224 495.16 616.064 497.8 613.744 499.96C611.504 502.04 608.624 503.08 605.104 503.08ZM615.304 510.04V577H594.784V510.04H615.304Z" fill="#ED5757"/>
</svg>
