<svg width="615" height="578" viewBox="0 0 615 578" fill="none" xmlns="http://www.w3.org/2000/svg">
<path d="M281 388.438H382.5V303.688H281V388.438ZM295.5 317.812H368V374.312H295.5V317.812Z" fill="#ED5757"/>
<path d="M281 402.562H295.5V416.688H281V402.562Z" fill="#ED5757"/>
<path d="M310 402.562H324.5V416.688H310V402.562Z" fill="#ED5757"/>
<path d="M339 402.562H353.5V416.688H339V402.562Z" fill="#ED5757"/>
<path d="M368 402.562H382.5V416.688H368V402.562Z" fill="#ED5757"/>
<path d="M418.969 64.4871L426.712 52.5373L438.985 60.0838L431.242 72.0336L418.969 64.4871Z" fill="#ED5757"/>
<path d="M388.031 112.274L395.774 100.324L408.047 107.87L400.304 119.82L388.031 112.274Z" fill="#ED5757"/>
<path d="M403.494 88.3868L411.241 76.4311L423.514 83.9776L415.767 95.9334L403.494 88.3868Z" fill="#ED5757"/>
<path d="M519.068 122.082L450.498 16.3214C446.735 10.5231 440.29 7.0625 433.25 7.0625C426.21 7.0625 419.765 10.5231 415.995 16.3285L347.432 122.082C342.139 130.24 338.217 139.061 335.571 148.312H207.695C217.127 139.329 223 126.828 223 113C223 85.7388 200.228 63.5625 172.25 63.5625C144.272 63.5625 121.5 85.7388 121.5 113C121.5 127.457 127.945 140.445 138.131 149.492C108.051 155.142 85.25 180.948 85.25 211.875V275.438C85.25 291.017 98.2565 303.688 114.25 303.688H121.5V416.688C121.5 432.267 134.506 444.938 150.5 444.938C159.207 444.938 166.928 441.11 172.25 435.177C177.572 441.11 185.293 444.938 194 444.938C209.994 444.938 223 432.267 223 416.688V204.812C223 200.921 226.248 197.75 230.25 197.75H310V220.731C288.953 224.531 269.298 234.475 254.124 249.257L252 251.326V409.625C252 429.096 268.262 444.938 288.25 444.938H375.25C395.238 444.938 411.5 429.096 411.5 409.625V273.1C418.612 274.618 425.884 275.438 433.25 275.438C489.22 275.438 534.75 231.085 534.75 176.562V174.882C534.75 156.159 529.327 137.902 519.068 122.082ZM179.261 230.372L172.25 237.201L165.239 230.372L170.793 162.438H173.707L179.261 230.372ZM136 113C136 93.5287 152.262 77.6875 172.25 77.6875C192.238 77.6875 208.5 93.5287 208.5 113C208.5 132.471 192.238 148.312 172.25 148.312C152.262 148.312 136 132.471 136 113ZM230.25 183.625C218.258 183.625 208.5 193.131 208.5 204.812V416.688C208.5 424.477 201.997 430.812 194 430.812C186.003 430.812 179.5 424.477 179.5 416.688V282.5H165V416.688C165 424.477 158.497 430.812 150.5 430.812C142.503 430.812 136 424.477 136 416.688V197.75H121.5V289.562H114.25C106.253 289.562 99.75 283.227 99.75 275.438V211.875C99.75 184.614 122.522 162.438 150.5 162.438H156.242L150.261 235.753L172.25 257.174L194.239 235.753L188.258 162.438H349.875C355.871 162.438 360.75 167.191 360.75 173.031C360.75 177.629 357.712 181.513 353.5 182.975V176.562H310V183.625H230.25ZM397 275.438H353.5V235.096C369.718 238.508 384.863 246.17 397 257.244V275.438ZM339 275.438H324.5V190.688H339V275.438ZM310 235.096V275.438H266.5V257.244C278.637 246.163 293.782 238.501 310 235.096ZM375.25 430.812H288.25C276.258 430.812 266.5 421.306 266.5 409.625V289.562H397V409.625C397 421.306 387.242 430.812 375.25 430.812ZM520.25 176.562C520.25 223.295 481.223 261.312 433.25 261.312C425.855 261.312 418.569 260.373 411.5 258.601V251.326L409.376 249.257C394.202 234.475 374.547 224.524 353.5 220.731V197.397C365.767 195.667 375.25 185.454 375.25 173.038C375.25 159.669 364.281 148.814 350.658 148.397C352.877 141.822 355.871 135.522 359.692 129.632L428.255 23.8713C430.452 20.5024 436.063 20.5095 438.245 23.8713L506.808 129.625C515.595 143.185 520.25 158.836 520.25 174.882V176.562Z" fill="#ED5757"/>
<path d="M462.25 120.062H418.75V148.312H389.75V190.688H418.75V218.938H462.25V190.688H491.25V148.312H462.25V120.062ZM476.75 162.438V176.562H447.75V204.812H433.25V176.562H404.25V162.438H433.25V134.188H447.75V162.438H476.75Z" fill="#ED5757"/>
<path d="M0.96 534.76C0.96 526.44 2.76 519.04 6.36 512.56C9.96 506 14.96 500.92 21.36 497.32C27.84 493.64 35.16 491.8 43.32 491.8C53.32 491.8 61.88 494.44 69 499.72C76.12 505 80.88 512.2 83.28 521.32H60.72C59.04 517.8 56.64 515.12 53.52 513.28C50.48 511.44 47 510.52 43.08 510.52C36.76 510.52 31.64 512.72 27.72 517.12C23.8 521.52 21.84 527.4 21.84 534.76C21.84 542.12 23.8 548 27.72 552.4C31.64 556.8 36.76 559 43.08 559C47 559 50.48 558.08 53.52 556.24C56.64 554.4 59.04 551.72 60.72 548.2H83.28C80.88 557.32 76.12 564.52 69 569.8C61.88 575 53.32 577.6 43.32 577.6C35.16 577.6 27.84 575.8 21.36 572.2C14.96 568.52 9.96 563.44 6.36 556.96C2.76 550.48 0.96 543.08 0.96 534.76ZM126.326 577.96C119.766 577.96 113.846 576.56 108.566 573.76C103.366 570.96 99.2463 566.96 96.2063 561.76C93.2463 556.56 91.7663 550.48 91.7663 543.52C91.7663 536.64 93.2863 530.6 96.3262 525.4C99.3663 520.12 103.526 516.08 108.806 513.28C114.086 510.48 120.006 509.08 126.566 509.08C133.126 509.08 139.046 510.48 144.326 513.28C149.606 516.08 153.766 520.12 156.806 525.4C159.846 530.6 161.366 536.64 161.366 543.52C161.366 550.4 159.806 556.48 156.686 561.76C153.646 566.96 149.446 570.96 144.086 573.76C138.806 576.56 132.886 577.96 126.326 577.96ZM126.326 560.2C130.246 560.2 133.566 558.76 136.286 555.88C139.086 553 140.486 548.88 140.486 543.52C140.486 538.16 139.126 534.04 136.406 531.16C133.766 528.28 130.486 526.84 126.566 526.84C122.566 526.84 119.246 528.28 116.606 531.16C113.966 533.96 112.646 538.08 112.646 543.52C112.646 548.88 113.926 553 116.486 555.88C119.126 558.76 122.406 560.2 126.326 560.2ZM213.053 509.32C220.893 509.32 227.133 511.88 231.773 517C236.493 522.04 238.853 529 238.853 537.88V577H218.453V540.64C218.453 536.16 217.293 532.68 214.973 530.2C212.653 527.72 209.533 526.48 205.613 526.48C201.693 526.48 198.573 527.72 196.253 530.2C193.933 532.68 192.773 536.16 192.773 540.64V577H172.253V510.04H192.773V518.92C194.853 515.96 197.653 513.64 201.173 511.96C204.693 510.2 208.653 509.32 213.053 509.32ZM290.432 559.6V577H279.992C272.552 577 266.752 575.2 262.592 571.6C258.432 567.92 256.352 561.96 256.352 553.72V527.08H248.192V510.04H256.352V493.72H276.872V510.04H290.312V527.08H276.872V553.96C276.872 555.96 277.352 557.4 278.312 558.28C279.272 559.16 280.872 559.6 283.112 559.6H290.432ZM322.382 521.2C324.782 517.52 327.782 514.64 331.382 512.56C334.982 510.4 338.982 509.32 343.382 509.32V531.04H337.742C332.622 531.04 328.782 532.16 326.222 534.4C323.662 536.56 322.382 540.4 322.382 545.92V577H301.862V510.04H322.382V521.2ZM383.67 577.96C377.11 577.96 371.19 576.56 365.91 573.76C360.71 570.96 356.59 566.96 353.55 561.76C350.59 556.56 349.11 550.48 349.11 543.52C349.11 536.64 350.63 530.6 353.67 525.4C356.71 520.12 360.87 516.08 366.15 513.28C371.43 510.48 377.35 509.08 383.91 509.08C390.47 509.08 396.39 510.48 401.67 513.28C406.95 516.08 411.11 520.12 414.15 525.4C417.19 530.6 418.71 536.64 418.71 543.52C418.71 550.4 417.15 556.48 414.03 561.76C410.99 566.96 406.79 570.96 401.43 573.76C396.15 576.56 390.23 577.96 383.67 577.96ZM383.67 560.2C387.59 560.2 390.91 558.76 393.63 555.88C396.43 553 397.83 548.88 397.83 543.52C397.83 538.16 396.47 534.04 393.75 531.16C391.11 528.28 387.83 526.84 383.91 526.84C379.91 526.84 376.59 528.28 373.95 531.16C371.31 533.96 369.99 538.08 369.99 543.52C369.99 548.88 371.27 553 373.83 555.88C376.47 558.76 379.75 560.2 383.67 560.2ZM450.116 488.2V577H429.596V488.2H450.116ZM520.907 519.4C519.387 516.6 517.187 514.48 514.307 513.04C511.507 511.52 508.187 510.76 504.347 510.76C497.707 510.76 492.387 512.96 488.387 517.36C484.387 521.68 482.387 527.48 482.387 534.76C482.387 542.52 484.467 548.6 488.627 553C492.867 557.32 498.667 559.48 506.027 559.48C511.067 559.48 515.307 558.2 518.747 555.64C522.267 553.08 524.827 549.4 526.427 544.6H500.387V529.48H545.027V548.56C543.507 553.68 540.907 558.44 537.227 562.84C533.627 567.24 529.027 570.8 523.427 573.52C517.827 576.24 511.507 577.6 504.467 577.6C496.147 577.6 488.707 575.8 482.147 572.2C475.667 568.52 470.587 563.44 466.907 556.96C463.307 550.48 461.507 543.08 461.507 534.76C461.507 526.44 463.307 519.04 466.907 512.56C470.587 506 475.667 500.92 482.147 497.32C488.627 493.64 496.027 491.8 504.347 491.8C514.427 491.8 522.907 494.24 529.787 499.12C536.747 504 541.347 510.76 543.587 519.4H520.907ZM576.913 488.2V577H556.393V488.2H576.913ZM602.104 503.08C598.504 503.08 595.544 502.04 593.224 499.96C590.984 497.8 589.864 495.16 589.864 492.04C589.864 488.84 590.984 486.2 593.224 484.12C595.544 481.96 598.504 480.88 602.104 480.88C605.624 480.88 608.504 481.96 610.744 484.12C613.064 486.2 614.224 488.84 614.224 492.04C614.224 495.16 613.064 497.8 610.744 499.96C608.504 502.04 605.624 503.08 602.104 503.08ZM612.304 510.04V577H591.784V510.04H612.304Z" fill="#ED5757"/>
</svg>
