<svg width="1000" height="800" viewBox="0 0 1440 1024" fill="none" xmlns="http://www.w3.org/2000/svg">
<rect width="1000" height="800" fill="white"/>
<path d="M757 448.438H858.5V363.688H757V448.438ZM771.5 377.812H844V434.312H771.5V377.812Z" fill="#ED5757"/>
<path d="M757 462.562H771.5V476.688H757V462.562Z" fill="#ED5757"/>
<path d="M786 462.562H800.5V476.688H786V462.562Z" fill="#ED5757"/>
<path d="M815 462.562H829.5V476.688H815V462.562Z" fill="#ED5757"/>
<path d="M844 462.562H858.5V476.688H844V462.562Z" fill="#ED5757"/>
<path d="M894.969 124.487L902.712 112.537L914.985 120.084L907.242 132.034L894.969 124.487Z" fill="#ED5757"/>
<path d="M864.031 172.274L871.774 160.324L884.047 167.87L876.304 179.82L864.031 172.274Z" fill="#ED5757"/>
<path d="M879.494 148.387L887.241 136.431L899.514 143.978L891.767 155.933L879.494 148.387Z" fill="#ED5757"/>
<path d="M995.068 182.082L926.498 76.3214C922.735 70.5231 916.29 67.0625 909.25 67.0625C902.21 67.0625 895.765 70.5231 891.995 76.3285L823.432 182.082C818.139 190.24 814.217 199.061 811.571 208.312H683.695C693.127 199.329 699 186.828 699 173C699 145.739 676.228 123.562 648.25 123.562C620.272 123.562 597.5 145.739 597.5 173C597.5 187.457 603.945 200.445 614.131 209.492C584.051 215.142 561.25 240.948 561.25 271.875V335.438C561.25 351.017 574.256 363.688 590.25 363.688H597.5V476.688C597.5 492.267 610.506 504.938 626.5 504.938C635.207 504.938 642.928 501.11 648.25 495.177C653.572 501.11 661.293 504.938 670 504.938C685.994 504.938 699 492.267 699 476.688V264.812C699 260.921 702.248 257.75 706.25 257.75H786V280.731C764.953 284.531 745.298 294.475 730.124 309.257L728 311.326V469.625C728 489.096 744.262 504.938 764.25 504.938H851.25C871.238 504.938 887.5 489.096 887.5 469.625V333.1C894.612 334.618 901.884 335.438 909.25 335.438C965.22 335.438 1010.75 291.085 1010.75 236.562V234.882C1010.75 216.159 1005.33 197.902 995.068 182.082ZM655.261 290.372L648.25 297.201L641.239 290.372L646.793 222.438H649.707L655.261 290.372ZM612 173C612 153.529 628.262 137.688 648.25 137.688C668.238 137.688 684.5 153.529 684.5 173C684.5 192.471 668.238 208.312 648.25 208.312C628.262 208.312 612 192.471 612 173ZM706.25 243.625C694.258 243.625 684.5 253.131 684.5 264.812V476.688C684.5 484.477 677.997 490.812 670 490.812C662.003 490.812 655.5 484.477 655.5 476.688V342.5H641V476.688C641 484.477 634.497 490.812 626.5 490.812C618.503 490.812 612 484.477 612 476.688V257.75H597.5V349.562H590.25C582.253 349.562 575.75 343.227 575.75 335.438V271.875C575.75 244.614 598.522 222.438 626.5 222.438H632.242L626.261 295.753L648.25 317.174L670.239 295.753L664.258 222.438H825.875C831.871 222.438 836.75 227.191 836.75 233.031C836.75 237.629 833.712 241.513 829.5 242.975V236.562H786V243.625H706.25ZM873 335.438H829.5V295.096C845.718 298.508 860.863 306.17 873 317.244V335.438ZM815 335.438H800.5V250.688H815V335.438ZM786 295.096V335.438H742.5V317.244C754.637 306.163 769.782 298.501 786 295.096ZM851.25 490.812H764.25C752.258 490.812 742.5 481.306 742.5 469.625V349.562H873V469.625C873 481.306 863.242 490.812 851.25 490.812ZM996.25 236.562C996.25 283.295 957.223 321.312 909.25 321.312C901.855 321.312 894.569 320.373 887.5 318.601V311.326L885.376 309.257C870.202 294.475 850.547 284.524 829.5 280.731V257.397C841.767 255.667 851.25 245.454 851.25 233.038C851.25 219.669 840.281 208.814 826.658 208.397C828.877 201.822 831.871 195.522 835.692 189.632L904.255 83.8713C906.452 80.5024 912.063 80.5095 914.245 83.8713L982.808 189.625C991.595 203.185 996.25 218.836 996.25 234.882V236.562Z" fill="#ED5757"/>
<path d="M938.25 180.062H894.75V208.312H865.75V250.688H894.75V278.938H938.25V250.688H967.25V208.312H938.25V180.062ZM952.75 222.438V236.562H923.75V264.812H909.25V236.562H880.25V222.438H909.25V194.188H923.75V222.438H952.75Z" fill="#ED5757"/>
<path d="M475.96 584.76C475.96 576.44 477.76 569.04 481.36 562.56C484.96 556 489.96 550.92 496.36 547.32C502.84 543.64 510.16 541.8 518.32 541.8C528.32 541.8 536.88 544.44 544 549.72C551.12 555 555.88 562.2 558.28 571.32H535.72C534.04 567.8 531.64 565.12 528.52 563.28C525.48 561.44 522 560.52 518.08 560.52C511.76 560.52 506.64 562.72 502.72 567.12C498.8 571.52 496.84 577.4 496.84 584.76C496.84 592.12 498.8 598 502.72 602.4C506.64 606.8 511.76 609 518.08 609C522 609 525.48 608.08 528.52 606.24C531.64 604.4 534.04 601.72 535.72 598.2H558.28C555.88 607.32 551.12 614.52 544 619.8C536.88 625 528.32 627.6 518.32 627.6C510.16 627.6 502.84 625.8 496.36 622.2C489.96 618.52 484.96 613.44 481.36 606.96C477.76 600.48 475.96 593.08 475.96 584.76ZM601.326 627.96C594.766 627.96 588.846 626.56 583.566 623.76C578.366 620.96 574.246 616.96 571.206 611.76C568.246 606.56 566.766 600.48 566.766 593.52C566.766 586.64 568.286 580.6 571.326 575.4C574.366 570.12 578.526 566.08 583.806 563.28C589.086 560.48 595.006 559.08 601.566 559.08C608.126 559.08 614.046 560.48 619.326 563.28C624.606 566.08 628.766 570.12 631.806 575.4C634.846 580.6 636.366 586.64 636.366 593.52C636.366 600.4 634.806 606.48 631.686 611.76C628.646 616.96 624.446 620.96 619.086 623.76C613.806 626.56 607.886 627.96 601.326 627.96ZM601.326 610.2C605.246 610.2 608.566 608.76 611.286 605.88C614.086 603 615.486 598.88 615.486 593.52C615.486 588.16 614.126 584.04 611.406 581.16C608.766 578.28 605.486 576.84 601.566 576.84C597.566 576.84 594.246 578.28 591.606 581.16C588.966 583.96 587.646 588.08 587.646 593.52C587.646 598.88 588.926 603 591.486 605.88C594.126 608.76 597.406 610.2 601.326 610.2ZM688.053 559.32C695.893 559.32 702.133 561.88 706.773 567C711.493 572.04 713.853 579 713.853 587.88V627H693.453V590.64C693.453 586.16 692.293 582.68 689.973 580.2C687.653 577.72 684.533 576.48 680.613 576.48C676.693 576.48 673.573 577.72 671.253 580.2C668.933 582.68 667.773 586.16 667.773 590.64V627H647.253V560.04H667.773V568.92C669.853 565.96 672.653 563.64 676.173 561.96C679.693 560.2 683.653 559.32 688.053 559.32ZM765.432 609.6V627H754.992C747.552 627 741.752 625.2 737.592 621.6C733.432 617.92 731.352 611.96 731.352 603.72V577.08H723.192V560.04H731.352V543.72H751.872V560.04H765.312V577.08H751.872V603.96C751.872 605.96 752.352 607.4 753.312 608.28C754.272 609.16 755.872 609.6 758.112 609.6H765.432ZM797.382 571.2C799.782 567.52 802.782 564.64 806.382 562.56C809.982 560.4 813.982 559.32 818.382 559.32V581.04H812.742C807.622 581.04 803.782 582.16 801.222 584.4C798.662 586.56 797.382 590.4 797.382 595.92V627H776.862V560.04H797.382V571.2ZM858.67 627.96C852.11 627.96 846.19 626.56 840.91 623.76C835.71 620.96 831.59 616.96 828.55 611.76C825.59 606.56 824.11 600.48 824.11 593.52C824.11 586.64 825.63 580.6 828.67 575.4C831.71 570.12 835.87 566.08 841.15 563.28C846.43 560.48 852.35 559.08 858.91 559.08C865.47 559.08 871.39 560.48 876.67 563.28C881.95 566.08 886.11 570.12 889.15 575.4C892.19 580.6 893.71 586.64 893.71 593.52C893.71 600.4 892.15 606.48 889.03 611.76C885.99 616.96 881.79 620.96 876.43 623.76C871.15 626.56 865.23 627.96 858.67 627.96ZM858.67 610.2C862.59 610.2 865.91 608.76 868.63 605.88C871.43 603 872.83 598.88 872.83 593.52C872.83 588.16 871.47 584.04 868.75 581.16C866.11 578.28 862.83 576.84 858.91 576.84C854.91 576.84 851.59 578.28 848.95 581.16C846.31 583.96 844.99 588.08 844.99 593.52C844.99 598.88 846.27 603 848.83 605.88C851.47 608.76 854.75 610.2 858.67 610.2ZM925.116 538.2V627H904.596V538.2H925.116ZM995.907 569.4C994.387 566.6 992.187 564.48 989.307 563.04C986.507 561.52 983.187 560.76 979.347 560.76C972.707 560.76 967.387 562.96 963.387 567.36C959.387 571.68 957.387 577.48 957.387 584.76C957.387 592.52 959.467 598.6 963.627 603C967.867 607.32 973.667 609.48 981.027 609.48C986.067 609.48 990.307 608.2 993.747 605.64C997.267 603.08 999.827 599.4 1001.43 594.6H975.387V579.48H1020.03V598.56C1018.51 603.68 1015.91 608.44 1012.23 612.84C1008.63 617.24 1004.03 620.8 998.427 623.52C992.827 626.24 986.507 627.6 979.467 627.6C971.147 627.6 963.707 625.8 957.147 622.2C950.667 618.52 945.587 613.44 941.907 606.96C938.307 600.48 936.507 593.08 936.507 584.76C936.507 576.44 938.307 569.04 941.907 562.56C945.587 556 950.667 550.92 957.147 547.32C963.627 543.64 971.027 541.8 979.347 541.8C989.427 541.8 997.907 544.24 1004.79 549.12C1011.75 554 1016.35 560.76 1018.59 569.4H995.907ZM1051.91 538.2V627H1031.39V538.2H1051.91ZM1077.1 553.08C1073.5 553.08 1070.54 552.04 1068.22 549.96C1065.98 547.8 1064.86 545.16 1064.86 542.04C1064.86 538.84 1065.98 536.2 1068.22 534.12C1070.54 531.96 1073.5 530.88 1077.1 530.88C1080.62 530.88 1083.5 531.96 1085.74 534.12C1088.06 536.2 1089.22 538.84 1089.22 542.04C1089.22 545.16 1088.06 547.8 1085.74 549.96C1083.5 552.04 1080.62 553.08 1077.1 553.08ZM1087.3 560.04V627H1066.78V560.04H1087.3Z" fill="#ED5757"/>
</svg>
