<svg xmlns="http://www.w3.org/2000/svg" width="1024" height="1024" viewBox="0 0 256 256" version="1.1" class="injected-svg" data-src="https://storage.googleapis.com/illustroke-c1d67.appspot.com/khn0YQOF3OQVQ9lu3PHzuDnAaKy1/kem993ec3likoxtrx11z2-1.svg" xmlns:xlink="http://www.w3.org/1999/xlink"><rect width="1024" height="1024" fill="TRANSPARENT"/>
	<path d="M 104.858 30.450 C 102.875 31.798, 100.984 33.598, 100.657 34.450 C 100.220 35.591, 98.604 36, 94.531 36 C 90.281 36, 89 36.347, 89 37.500 C 89 38.444, 88.048 39, 86.434 39 C 81.036 39, 80 40.455, 80 48.035 L 80 55 113.044 55 L 146.088 55 145.794 47.764 L 145.500 40.528 142 39.905 C 140.075 39.562, 137.150 38.546, 135.500 37.647 C 133.850 36.748, 130.828 36.010, 128.785 36.006 C 126.066 36.002, 124.776 35.450, 123.971 33.946 C 120.810 28.040, 111.036 26.252, 104.858 30.450 M 108.571 36.571 C 106.299 38.844, 106.524 44.675, 108.934 45.965 C 113.873 48.608, 119.715 45.076, 118.532 40.163 C 117.358 35.289, 111.843 33.300, 108.571 36.571 M 58.200 41.200 C 57.289 42.111, 57 59.439, 57 113.078 C 57 177.582, 57.144 183.875, 58.653 185.128 C 59.980 186.230, 68.268 186.556, 100.820 186.783 C 124.945 186.951, 141.711 186.689, 142.266 186.134 C 142.779 185.621, 142.899 184.256, 142.532 183.101 C 141.869 181.013, 141.625 181, 101.933 181 L 62 181 62 113 L 62 45 70.500 45 C 78.900 45, 79 44.971, 79 42.500 C 79 40.003, 78.987 40, 69.200 40 C 62.911 40, 58.970 40.430, 58.200 41.200 M 147 42.500 C 147 44.971, 147.100 45, 155.500 45 L 164 45 164 86.917 C 164 119.266, 164.282 128.927, 165.234 129.245 C 166.052 129.517, 165.546 130.750, 163.734 132.905 C 161.017 136.133, 160.163 139, 161.917 139 C 162.421 139, 163.060 138.438, 163.338 137.750 C 163.615 137.063, 163.878 138.412, 163.921 140.750 L 164 145 159.250 145.022 C 153.241 145.050, 146.862 147.915, 143.906 151.914 C 142.367 153.994, 141.283 154.683, 140.607 154.007 C 139.232 152.632, 70 152.625, 70 154 C 70 154.648, 82.511 155, 105.534 155 L 141.069 155 140.423 159.872 C 138.566 173.867, 148.059 196.435, 157.898 201.420 C 161.423 203.206, 180.577 203.206, 184.102 201.420 C 195.092 195.852, 205.420 168.181, 200.936 156.315 C 199.480 152.460, 195.181 148.123, 191.128 146.418 C 189.186 145.601, 184.432 145, 179.917 145 L 172.077 145 170.539 139.818 C 169.252 135.485, 169 127.154, 169 88.890 C 169 48.635, 168.811 42.954, 167.429 41.571 C 166.222 40.365, 163.667 40, 156.429 40 C 147.038 40, 147 40.010, 147 42.500 M 70 94 C 70 94.651, 85 95, 113 95 C 141 95, 156 94.651, 156 94 C 156 93.349, 141 93, 113 93 C 85 93, 70 93.349, 70 94 M 70 106 C 70 106.651, 85 107, 113 107 C 141 107, 156 106.651, 156 106 C 156 105.349, 141 105, 113 105 C 85 105, 70 105.349, 70 106 M 187.620 111.882 C 174.355 116.597, 168.465 126.716, 171.877 138.926 C 174.446 148.119, 191.401 138.228, 194.892 125.500 C 196.136 120.965, 196.340 112.020, 195.235 110.468 C 194.752 109.790, 192.139 110.275, 187.620 111.882 M 184.587 116.032 C 176.826 119.905, 173.971 124.422, 174.040 132.718 L 174.080 137.500 175.841 134 C 179.903 125.930, 183.431 121.531, 185.042 122.526 C 185.712 122.940, 185.218 124.339, 183.694 126.340 C 180.570 130.444, 176.793 137.880, 177.205 139.116 C 177.383 139.648, 179.547 139.017, 182.014 137.714 C 188.198 134.448, 192.243 127.783, 192.812 119.923 C 193.224 114.229, 193.149 114.002, 190.870 114.040 C 189.567 114.062, 186.739 114.958, 184.587 116.032 M 70 117 C 70 117.651, 85 118, 113 118 C 141 118, 156 117.651, 156 117 C 156 116.349, 141 116, 113 116 C 85 116, 70 116.349, 70 117 M 70 130.500 C 70 131.810, 75.444 132, 113 132 C 150.556 132, 156 131.810, 156 130.500 C 156 129.190, 150.556 129, 113 129 C 75.444 129, 70 129.190, 70 130.500 M 70 142.500 C 70 143.776, 72.593 144, 87.338 144 C 115.897 144, 156 142.738, 156 141.840 C 156 141.378, 136.650 141, 113 141 C 75.444 141, 70 141.190, 70 142.500 M 177.119 147.814 C 172.871 148.118, 172.804 148.175, 174.926 149.661 C 176.433 150.717, 177.019 152.019, 176.807 153.847 C 176.534 156.210, 176.021 156.534, 172.114 156.814 C 169.702 156.987, 167.282 156.682, 166.737 156.137 C 165.187 154.587, 166.822 150.009, 169.280 149.020 C 170.846 148.390, 168.908 148.108, 162.700 148.063 C 153.219 147.995, 150.231 148.957, 146.063 153.419 C 139.292 160.666, 145.339 186.750, 156.030 196.408 L 159.726 199.747 170.613 199.758 C 180.006 199.767, 181.935 199.481, 184.668 197.671 C 194.757 190.992, 202.610 163.578, 197.025 154.540 C 193.906 149.493, 186.868 147.115, 177.119 147.814 M 70 165.500 C 70 166.844, 74.070 166.995, 104.001 166.763 C 125.826 166.594, 138.001 166.142, 138.001 165.500 C 138.001 164.858, 125.826 164.406, 104.001 164.237 C 74.070 164.005, 70 164.156, 70 165.500 M 74.042 225.250 C 74.066 225.938, 74.662 228.975, 75.368 232 C 76.995 238.976, 79.490 239.977, 80.491 234.055 C 81.367 228.867, 82.795 228.863, 83.624 234.047 C 84.629 240.338, 87.168 238.939, 88.843 231.172 C 89.590 227.705, 89.961 224.628, 89.667 224.334 C 88.644 223.310, 87 225.133, 86.985 227.309 C 86.976 228.514, 86.576 230.121, 86.095 230.881 C 85.479 231.853, 85.013 231.038, 84.522 228.131 C 84.002 225.054, 83.359 224, 82 224 C 80.651 224, 80 225.042, 79.500 228 C 79.128 230.200, 78.471 232, 78.040 232 C 77.609 232, 76.968 230.200, 76.616 228 C 76.264 225.800, 75.532 224, 74.988 224 C 74.445 224, 74.019 224.563, 74.042 225.250 M 92 231 L 92 238 96 238 C 98.200 238, 100 237.550, 100 237 C 100 236.450, 98.875 236, 97.500 236 C 95.667 236, 95 235.467, 95 234 C 95 232.667, 95.667 232, 97 232 C 98.111 232, 99 231.333, 99 230.500 C 99 229.667, 98.111 229, 97 229 C 95.889 229, 95 228.333, 95 227.500 C 95 226.567, 95.944 226, 97.500 226 C 98.875 226, 100 225.550, 100 225 C 100 224.450, 98.200 224, 96 224 L 92 224 92 231 M 102 231.083 C 102 236.308, 102.328 238.056, 103.250 237.745 C 103.938 237.513, 104.500 236.238, 104.500 234.912 C 104.500 233.172, 105.127 232.411, 106.750 232.180 C 108.664 231.909, 109 232.319, 109 234.930 C 109 236.992, 109.492 238, 110.500 238 C 111.690 238, 112 236.556, 112 231 C 112 225.589, 111.675 224, 110.566 224 C 109.746 224, 108.998 225.176, 108.816 226.750 C 108.589 228.728, 107.938 229.500, 106.500 229.500 C 105.062 229.500, 104.411 228.728, 104.184 226.750 C 103.541 221.167, 102 224.226, 102 231.083 M 114 225.500 C 114 226.325, 114.426 227, 114.948 227 C 115.469 227, 116.031 229.327, 116.198 232.171 C 116.627 239.508, 119 239.948, 119 232.690 C 119 228.745, 119.419 227.053, 120.500 226.638 C 123.401 225.525, 121.956 224, 118 224 C 115.111 224, 114 224.417, 114 225.500 M 129 231 C 129 235, 129.429 238, 130 238 C 130.550 238, 131 236.650, 131 235 C 131 232.467, 131.389 232, 133.500 232 C 135.333 232, 136 231.467, 136 230 C 136 228.521, 135.333 228, 133.441 228 C 131.990 228, 131.149 227.567, 131.500 227 C 131.840 226.450, 133.243 226, 134.618 226 C 136.030 226, 136.849 225.565, 136.500 225 C 136.160 224.450, 134.334 224, 132.441 224 L 129 224 129 231 M 138 231 L 138 238 141.500 238 C 143.425 238, 145 237.550, 145 237 C 145 236.450, 144.100 236, 143 236 C 141.222 236, 141 235.333, 141 230 C 141 225.333, 140.667 224, 139.500 224 C 138.310 224, 138 225.444, 138 231 M 146.530 226.594 C 143.531 231.171, 146.806 238, 152 238 C 155.735 238, 158 235.120, 158 230.371 C 158 225.438, 156.627 224, 151.915 224 C 149.052 224, 147.851 224.579, 146.530 226.594 M 160.204 230.670 C 160.392 234.893, 160.959 237.492, 161.750 237.754 C 162.569 238.024, 163 237.104, 163 235.083 C 163 232.671, 163.433 232, 164.992 232 C 166.087 232, 167.488 231.192, 168.104 230.204 C 169.153 228.526, 169.415 228.585, 172.113 231.106 C 175.803 234.552, 175.769 236, 172 236 C 170.350 236, 169 236.450, 169 237 C 169 238.411, 175.352 238.248, 176.800 236.800 C 178.664 234.936, 178.247 233.403, 175.059 230.394 C 171.919 227.430, 171.919 226, 175.059 226 C 176.127 226, 177 225.550, 177 225 C 177 223.373, 171.179 223.857, 170.225 225.563 C 169.431 226.981, 169.229 226.981, 168.052 225.563 C 167.338 224.703, 165.216 224, 163.332 224 L 159.909 224 160.204 230.670 M 149.200 227.200 C 146.627 229.773, 148.649 236, 152.057 236 C 153.205 236, 154.523 234.945, 155.182 233.500 C 157.404 228.623, 152.715 223.685, 149.200 227.200 M 163.583 226.866 C 163.152 227.563, 163.070 228.403, 163.400 228.733 C 164.295 229.628, 165.271 228.312, 164.787 226.862 C 164.449 225.846, 164.213 225.846, 163.583 226.866" stroke="none" fill="#0693E3" fill-rule="evenodd" fill-opacity="1"/>
</svg>