<svg width="783" height="523" viewBox="0 0 783 523" fill="none" xmlns="http://www.w3.org/2000/svg">
<g clip-path="url(#clip0)">
<path d="M562.177 209.59L539.097 209.827C538.013 204.188 534.368 189.391 537.65 185.355C537.8 183.836 538.499 182.436 539.601 181.447C540.703 180.459 542.124 179.957 543.568 180.046V180.046C547.145 174.134 553.103 175.021 557.13 178.714C561.183 180.191 562.711 182.814 562.177 186.375C565.178 189.149 565.732 192.524 564.385 196.366L562.177 209.59Z" fill="#2F2E41"/>
<path d="M559.955 224.603L543.304 222.168L539.974 217.028C544.561 213.815 546.185 209.327 544.073 203.233L555.6 202.962C555.06 208.389 556.76 212.592 561.492 215.135L559.955 224.603Z" fill="#FFB9B9"/>
<path d="M539.367 383.195L538.73 392.386C538.702 392.802 538.757 393.22 538.894 393.612C539.031 394.003 539.245 394.359 539.522 394.656C539.8 394.953 540.134 395.183 540.503 395.332C540.872 395.482 541.267 395.546 541.662 395.52L546.132 395.234C546.34 395.221 546.541 395.16 546.724 395.055C546.906 394.95 547.064 394.804 547.187 394.627C547.309 394.45 547.394 394.247 547.434 394.032C547.474 393.817 547.468 393.595 547.418 393.383L544.936 382.901L539.367 383.195Z" fill="#3F3D56"/>
<path d="M553.841 382.901L551.36 393.383C551.309 393.595 551.304 393.817 551.344 394.032C551.384 394.247 551.468 394.45 551.591 394.627C551.714 394.804 551.872 394.95 552.054 395.055C552.236 395.16 552.438 395.221 552.645 395.234L557.116 395.52C557.51 395.546 557.905 395.482 558.274 395.332C558.643 395.183 558.978 394.953 559.255 394.656C559.533 394.359 559.747 394.003 559.884 393.612C560.02 393.22 560.076 392.802 560.047 392.386L559.41 383.195L553.841 382.901Z" fill="#3F3D56"/>
<path d="M559.699 384.471L553.666 383.832L547.659 316.033L545.389 383.613L539.461 383.389L529.471 289.794H567.64L559.699 384.471Z" fill="#ED5757"/>
<path d="M550.477 207.561C556.843 207.561 562.005 202.111 562.005 195.388C562.005 188.665 556.843 183.215 550.477 183.215C544.11 183.215 538.949 188.665 538.949 195.388C538.949 202.111 544.11 207.561 550.477 207.561Z" fill="#FFB9B9"/>
<path d="M573.276 291.958L526.653 292.499C533.572 264.685 537.711 238.848 530.495 221.086L542.023 215.135C547.582 221.257 553.772 220.626 560.468 214.594L571.483 217.569C569.596 240.862 570.442 265.808 573.276 291.958Z" fill="#ED5757"/>
<path d="M513.844 263.285L542.792 275.458L549.263 277.468C549.553 277.557 549.857 277.585 550.156 277.547C550.456 277.51 550.745 277.41 551.007 277.251C551.269 277.093 551.498 276.88 551.68 276.626C551.862 276.372 551.994 276.082 552.067 275.773C552.195 275.231 552.138 274.658 551.905 274.157C551.671 273.656 551.277 273.258 550.793 273.034L544.072 270.859L523.835 258.416L528.062 246.649L519.224 241.644L513.844 263.285Z" fill="#FFB9B9"/>
<path d="M514.1 241.103C519.608 243.372 523.988 247.244 527.421 252.465L538.181 235.964L530.495 221.086L514.1 241.103Z" fill="#ED5757"/>
<path d="M563.469 193.415C558.79 192.142 554.19 191.967 549.719 193.582C546.87 195.039 543.449 194.905 539.645 193.704V181.56L560.183 182.138L563.469 193.415Z" fill="#2F2E41"/>
<path d="M542.696 249.102C541.79 249.103 540.923 249.483 540.283 250.159C539.642 250.835 539.282 251.751 539.281 252.707L540.629 282.496C540.63 283.452 540.99 284.369 541.63 285.045C542.27 285.72 543.138 286.101 544.043 286.102H559.451C560.357 286.101 561.224 285.72 561.864 285.045C562.505 284.369 562.865 283.452 562.866 282.496L564.213 252.707C564.212 251.751 563.852 250.835 563.212 250.159C562.572 249.483 561.704 249.103 560.799 249.102H542.696Z" fill="#3F3D56"/>
<path d="M586.413 261.034L561.181 271.643L559.277 272.444C559.217 272.469 559.156 272.49 559.092 272.511L552.714 274.493C551.899 274.746 550.77 273.586 550.11 272.785C549.783 272.4 549.598 271.903 549.588 271.385C549.578 270.868 549.744 270.364 550.056 269.964C550.144 269.857 550.241 269.758 550.346 269.669C550.592 269.467 550.881 269.332 551.188 269.278L557.559 267.954C557.788 267.907 558.007 267.82 558.209 267.698L561.181 265.869L576.608 256.385C577.037 256.121 577.364 255.706 577.53 255.212C577.696 254.718 577.691 254.178 577.515 253.688L574.57 245.487C574.389 244.986 574.388 244.432 574.566 243.929C574.744 243.426 575.089 243.009 575.537 242.755L580.416 239.994C580.694 239.836 581.003 239.747 581.32 239.734C581.636 239.72 581.951 239.782 582.241 239.916C582.531 240.05 582.788 240.251 582.994 240.505C583.199 240.759 583.348 241.059 583.428 241.382L587.663 258.416C587.793 258.938 587.738 259.493 587.507 259.975C587.277 260.458 586.888 260.834 586.413 261.034V261.034Z" fill="#FFB9B9"/>
<path d="M587.878 238.128C582.37 240.397 577.99 244.269 574.557 249.489L563.798 232.988L571.483 217.569L587.878 238.128Z" fill="#ED5757"/>
<path d="M558.149 206.222C553.106 208.437 547.818 208.347 542.314 206.222C543.915 203.336 541.521 201.075 540.292 198.161L560.844 197.516C559.272 200.047 556.953 203.038 558.149 206.222Z" fill="white"/>
<path d="M560.626 197.997L560.388 197.746L560.725 197.39L562.737 194.91L562.993 195.141L560.972 197.631L560.626 197.997Z" fill="white"/>
<path d="M538.884 196.49L538.668 196.763L540.69 198.542L540.906 198.269L538.884 196.49Z" fill="white"/>
<path d="M561.207 200.089L557.668 205.959L557.953 206.15L561.491 200.28L561.207 200.089Z" fill="white"/>
<path d="M539.255 200.089L538.97 200.28L542.508 206.15L542.792 205.959L539.255 200.089Z" fill="white"/>
<path d="M561.855 265.366V271.811L559.73 272.705C559.662 272.733 559.594 272.756 559.523 272.78L552.404 274.992C551.494 275.274 550.234 273.979 549.497 273.086C549.132 272.655 548.925 272.101 548.914 271.523C548.903 270.945 549.088 270.383 549.437 269.937C549.535 269.817 549.643 269.707 549.76 269.607C550.034 269.382 550.357 269.232 550.7 269.17L557.812 267.693C558.067 267.64 558.312 267.544 558.538 267.407L561.855 265.366Z" fill="white"/>
<path d="M564.934 242.376H563.716C563.716 224.193 560.171 211.521 556.716 211.521L556.411 210.236C559.51 210.236 561.485 215.509 562.597 219.934C564.104 225.932 564.934 233.902 564.934 242.376Z" fill="#3F3D56"/>
<path d="M536.931 237.877H535.714C535.714 221.224 539.284 210.879 544.541 210.879L544.236 212.164C540.6 212.164 536.931 220.115 536.931 237.877Z" fill="#3F3D56"/>
<path d="M564.325 245.912C566.006 245.912 567.369 244.473 567.369 242.698C567.369 240.923 566.006 239.484 564.325 239.484C562.644 239.484 561.281 240.923 561.281 242.698C561.281 244.473 562.644 245.912 564.325 245.912Z" fill="#3F3D56"/>
<path d="M532.061 245.591H530.844C530.844 240.983 533.301 237.234 536.322 237.234V238.52C533.973 238.52 532.061 241.692 532.061 245.591Z" fill="#3F3D56"/>
<path d="M541.801 245.591H540.584C540.584 241.692 538.672 238.52 536.322 238.52V237.234C539.343 237.234 541.801 240.983 541.801 245.591Z" fill="#3F3D56"/>
<path d="M541.193 247.198C541.865 247.198 542.41 246.622 542.41 245.912C542.41 245.202 541.865 244.626 541.193 244.626C540.52 244.626 539.975 245.202 539.975 245.912C539.975 246.622 540.52 247.198 541.193 247.198Z" fill="#3F3D56"/>
<path d="M531.452 247.198C532.125 247.198 532.67 246.622 532.67 245.912C532.67 245.202 532.125 244.626 531.452 244.626C530.78 244.626 530.235 245.202 530.235 245.912C530.235 246.622 530.78 247.198 531.452 247.198Z" fill="#3F3D56"/>
<path d="M384.727 202.707L363.345 206.531C362.816 206.626 362.273 206.511 361.821 206.208C361.368 205.904 361.039 205.435 360.895 204.89C359.35 199.002 356.12 191.321 359.256 187.465C359.416 185.843 360.162 184.349 361.339 183.293C362.516 182.237 364.034 181.701 365.575 181.797C369.395 175.483 375.758 176.431 380.058 180.374C384.386 181.951 386.017 184.753 385.447 188.554C387.317 190.282 388.297 192.229 388.503 194.365C388.601 195.554 388.458 196.752 388.083 197.877C387.708 199.003 387.11 200.032 386.329 200.894L384.727 202.707Z" fill="#2F2E41"/>
<path d="M381.403 220.483L364.826 219.453C366.451 215.516 367.1 211.725 366.451 208.127H378.803C378.775 210.889 380.076 215.667 381.403 220.483Z" fill="#9F616A"/>
<path d="M361.449 382.224L360.769 392.038C360.739 392.483 360.798 392.929 360.944 393.347C361.09 393.765 361.319 394.145 361.615 394.462C361.912 394.779 362.269 395.025 362.663 395.184C363.057 395.344 363.478 395.412 363.899 395.385L368.674 395.08C368.895 395.066 369.11 395 369.305 394.888C369.499 394.776 369.668 394.62 369.799 394.431C369.93 394.242 370.02 394.026 370.063 393.796C370.106 393.566 370.1 393.33 370.046 393.103L367.396 381.91L361.449 382.224Z" fill="#3F3D56"/>
<path d="M376.905 381.91L374.255 393.103C374.202 393.33 374.196 393.566 374.239 393.796C374.281 394.026 374.371 394.242 374.502 394.431C374.633 394.62 374.802 394.776 374.997 394.888C375.191 395 375.407 395.066 375.628 395.08L380.402 395.385C380.823 395.412 381.245 395.344 381.639 395.184C382.033 395.025 382.39 394.779 382.686 394.462C382.983 394.145 383.212 393.765 383.358 393.347C383.503 392.929 383.563 392.483 383.532 392.038L382.852 382.224L376.905 381.91Z" fill="#3F3D56"/>
<path d="M383.16 383.586L376.718 382.904L370.304 310.505L367.88 382.67L361.55 382.431L350.881 282.486H391.641L383.16 383.586Z" fill="#ED5757"/>
<path d="M372.953 212.294C379.751 212.294 385.263 206.474 385.263 199.295C385.263 192.116 379.751 186.297 372.953 186.297C366.154 186.297 360.643 192.116 360.643 199.295C360.643 206.474 366.154 212.294 372.953 212.294Z" fill="#9F616A"/>
<path d="M386.827 193.085C381.831 192.167 376.918 192.04 372.143 193.206C369.102 194.257 365.449 194.16 361.386 193.294V184.528L383.318 184.946L386.827 193.085Z" fill="#2F2E41"/>
<path d="M381.145 209.725C375.76 212.09 370.113 211.994 364.236 209.725C365.946 206.642 363.39 204.228 362.077 201.116L384.023 200.428C382.345 203.131 379.869 206.325 381.145 209.725Z" fill="white"/>
<path d="M360.566 199.341L360.35 199.615L362.509 201.514L362.725 201.241L360.566 199.341Z" fill="white"/>
<path d="M384.421 203.182L380.643 209.449L380.927 209.64L384.705 203.373L384.421 203.182Z" fill="white"/>
<path d="M360.96 203.181L360.675 203.372L364.453 209.641L364.737 209.45L360.96 203.181Z" fill="white"/>
<path d="M349.55 258.579L340.124 252.402L348.163 227.541C349.059 224.976 350.777 222.822 353.018 221.452L355.726 219.796L355.961 244.876L349.55 258.579Z" fill="#ED5757"/>
<path d="M390.293 270.654L388.898 258.041C388.824 251.384 389.896 244.947 392.454 239.016L393.754 220.483L379.453 214.305C379.409 214.613 379.372 214.92 379.33 215.228L372.627 218.767L366.09 217.198L366.127 214.991L353.125 221.169C357.425 242.276 355.08 264.195 347.686 290.084L364.814 295.03L364.956 286.345L380.221 285.194C380.378 288.012 380.505 290.779 380.578 293.485C389.191 296.834 389.487 296.778 397.335 291.984C394.21 285.045 391.735 277.825 390.293 270.654Z" fill="#ED5757"/>
<path d="M412.281 255.49L403.505 252.402L389.468 235.146L393.754 220.483L413.256 249.313L412.281 255.49Z" fill="#ED5757"/>
<path d="M384.777 268.85C384.921 269.515 385.309 270.093 385.855 270.457C386.402 270.821 387.063 270.942 387.693 270.792L395.143 269.01L394.066 263.989L386.617 265.77C385.986 265.921 385.438 266.33 385.093 266.908C384.748 267.485 384.635 268.184 384.777 268.85V268.85Z" fill="#E6E6E6"/>
<path d="M391.479 263.041L395.704 271.278C402.811 269.185 408.971 262.587 414.881 254.804L413.256 249.313L403.18 252.058L391.479 263.041Z" fill="#ED5757"/>
<path d="M336.386 237.203L344.498 238.733L363.039 266.57L353.189 264.123L336.386 237.203Z" fill="#E6E6E6"/>
<path d="M334.948 236.863C334.824 236.865 334.703 236.902 334.598 236.97C334.492 237.038 334.406 237.135 334.348 237.25C334.29 237.365 334.263 237.495 334.269 237.625C334.275 237.756 334.314 237.882 334.382 237.991L351.712 265.757C351.809 265.913 351.958 266.023 352.13 266.065L360.193 268.069C360.329 268.102 360.472 268.092 360.602 268.038C360.732 267.984 360.843 267.89 360.922 267.768C361 267.646 361.041 267.501 361.04 267.354C361.038 267.206 360.995 267.063 360.914 266.942L341.886 238.373C341.835 238.295 341.769 238.229 341.693 238.178C341.617 238.127 341.533 238.092 341.444 238.076L335.078 236.875C335.035 236.867 334.991 236.863 334.948 236.863Z" fill="#3F3D56"/>
<path d="M345.758 256.715L346.24 261.838L353.841 261.041C354.484 260.974 355.076 260.639 355.486 260.111C355.895 259.583 356.09 258.905 356.026 258.226C355.962 257.546 355.645 256.922 355.145 256.489C354.645 256.056 354.003 255.851 353.359 255.918L345.758 256.715Z" fill="#E6E6E6"/>
<path d="M339.149 256.122C339.16 257.869 339.825 259.54 340.998 260.772C342.171 262.004 343.757 262.696 345.412 262.698H346.661L347.571 254.691L340.038 251.828L339.149 256.122Z" fill="#ED5757"/>
<path d="M383.423 201.313L383.185 201.062L383.545 200.682L385.694 198.032L385.95 198.264L383.791 200.923L383.423 201.313Z" fill="white"/>
</g>
<g clip-path="url(#clip1)">
<path d="M472.32 243.77L502.484 244.547L506.545 207.252H472.32V243.77Z" fill="#2F2E41"/>
<path d="M504.25 292.116L515.26 371.273C515.26 371.273 524.803 399.434 525.537 413.134L528.473 432.923L515.26 435.967L501.314 380.406L482.229 330.172L484.431 388.017L488.835 435.206L475.623 437.49L467.548 377.361L458.74 333.217C458.74 333.217 452.134 295.161 462.41 291.355L504.25 292.116Z" fill="#2F2E41"/>
<path d="M516.144 428.065L517.613 446.591C517.613 446.591 501.89 456.016 506.935 457.843C511.98 459.67 518.885 457.32 520.297 456.904C521.789 456.466 524.573 455.766 526.68 455.249C527.656 455.017 528.534 454.468 529.186 453.681C529.838 452.895 530.23 451.912 530.304 450.877L530.308 450.809C530.435 448.53 525.475 428.72 525.475 428.72L516.144 428.065Z" fill="#2F2E41"/>
<path d="M477.962 428.529L476.724 446.243C476.724 446.243 458.819 453.14 463.435 455.933C468.05 458.726 475.261 457.787 476.724 457.659C479.421 457.424 486.133 457.189 486.133 457.189C486.133 457.189 487.374 458.303 487.919 456.091C488.464 453.878 487.192 434.115 487.192 434.115L477.962 428.529Z" fill="#2F2E41"/>
<path d="M488.835 228.183C496.538 228.183 502.782 221.708 502.782 213.721C502.782 205.735 496.538 199.26 488.835 199.26C481.133 199.26 474.889 205.735 474.889 213.721C474.889 221.708 481.133 228.183 488.835 228.183Z" fill="#FFB8B8"/>
<path d="M496.909 222.094L499.846 238.839L487.367 244.927L484.431 223.616L496.909 222.094Z" fill="#FFB8B8"/>
<path d="M498.378 301.25L482.963 312.667C482.963 312.667 476.357 330.172 471.218 327.128C466.08 324.083 477.091 308.861 477.091 308.861L489.569 295.922L498.378 301.25Z" fill="#FFB8B8"/>
<path d="M454.336 295.922L452.868 305.055C452.868 305.055 456.538 324.083 460.942 320.278C465.346 316.472 459.474 304.294 459.474 304.294L460.208 296.683L454.336 295.922Z" fill="#FFB8B8"/>
<path d="M488.835 240.361L490.303 234.272L499.112 229.705L502.048 233.511L511.59 236.555L500.58 297.444C500.58 297.444 463.144 299.728 462.41 293.639C461.676 287.55 469.751 270.805 469.751 270.805C469.751 270.805 467.548 262.433 468.282 257.866L471.219 239.599L482.963 235.794L485.645 232.429L488.101 236.555L488.835 240.361Z" fill="#E2E0EC"/>
<path d="M509.388 238.077L511.59 236.555C511.59 236.555 515.994 237.316 517.462 243.405C518.93 249.494 517.462 276.894 513.792 282.222C510.122 287.55 499.846 303.533 499.846 303.533L485.899 296.683L500.58 279.178L504.25 257.105L509.388 238.077Z" fill="#E2E0EC"/>
<path d="M477.091 241.122L471.219 239.599C471.219 239.599 467.548 241.122 466.08 246.45C464.612 251.777 456.538 278.416 457.272 280.7C458.006 282.983 450.666 298.205 450.666 298.205L460.942 298.967L466.814 282.983L472.687 267L477.091 241.122Z" fill="#E2E0EC"/>
<path d="M513.007 227.455C510.066 225.78 508.697 222.021 508.6 218.543C508.502 215.065 509.316 211.623 509.38 208.145C509.412 207.433 509.354 206.72 509.206 206.024C508.962 205.161 508.582 204.345 508.081 203.61C504.256 197.533 497.607 193.258 490.604 193.191C489.592 193.177 488.588 193.369 487.647 193.755C486.923 194.055 486.686 194.019 486.547 194.94C484.889 194.373 483.089 194.432 481.469 195.108C479.863 195.785 478.366 196.709 477.027 197.851C476.232 198.464 475.481 199.138 474.782 199.866C471.081 203.842 470.229 209.969 471.301 215.381C471.649 217.141 469.977 218.84 468.593 219.921C467.209 221.002 465.611 221.994 464.932 223.646C464.278 225.236 464.637 227.054 464.505 228.777C464.358 230.405 463.774 231.958 462.82 233.261C461.866 234.563 460.58 235.564 459.107 236.149C459.407 236.522 459.8 236.804 460.242 236.965C460.684 237.126 461.16 237.161 461.62 237.065C462.579 236.855 463.476 236.412 464.238 235.772C467.102 233.572 469.152 230.418 470.044 226.84C470.45 228.757 470.293 230.734 470.278 232.696C470.313 234.887 469.924 237.062 469.134 239.093C468.33 241.134 466.857 242.816 464.975 243.842C466.79 244.764 468.791 244.096 470.329 242.736C471.867 241.376 472.775 239.403 473.41 237.413C474.442 234.17 474.861 230.751 474.643 227.344C476.331 230.292 476.948 233.768 476.383 237.146C475.792 240.59 474.058 243.711 471.481 245.968C475.974 245.929 480.393 244.775 484.368 242.603C485.394 242.12 486.299 241.398 487.011 240.492C488.29 238.652 487.988 236.143 487.629 233.905C487.345 232.136 489.477 229.578 488.256 228.308C487.893 227.936 487.409 227.72 486.899 227.703C485.063 227.561 483.283 226.982 481.697 226.013C480.11 225.044 478.76 223.709 477.751 222.112C476.343 219.917 475.543 217.363 475.439 214.729C475.44 212.795 475.843 210.883 476.622 209.126C477.401 207.368 478.537 205.806 479.952 204.545C481.367 203.285 483.027 202.356 484.82 201.822C486.613 201.288 488.496 201.162 490.341 201.452C492.185 201.743 493.947 202.442 495.506 203.504C497.066 204.565 498.386 205.963 499.376 207.602C500.367 209.241 501.004 211.083 501.245 213.001C501.486 214.919 501.325 216.869 500.772 218.716C500.332 220.203 500.016 221.726 499.829 223.269C499.608 225.06 499.256 226.83 498.777 228.566C497.853 231.901 496.288 235.305 493.392 237.045C494.366 237.597 495.492 237.622 496.594 237.748C500.228 238.163 504.05 238.071 507.339 236.416C510.628 234.761 513.242 231.237 513.007 227.455Z" fill="#2F2E41"/>
<path d="M505.078 212.691C494.643 208.354 484.354 207.429 474.334 212.691V203.949C474.334 202.439 474.913 200.991 475.943 199.923C476.973 198.856 478.369 198.256 479.825 198.256H500.74C501.31 198.256 501.874 198.372 502.4 198.598C502.927 198.824 503.405 199.156 503.808 199.573C504.211 199.991 504.53 200.487 504.748 201.033C504.966 201.578 505.078 202.163 505.078 202.754V212.691Z" fill="#2F2E41"/>
<path d="M501.831 218.105C502.68 218.105 503.369 216.962 503.369 215.553C503.369 214.143 502.68 213.001 501.831 213.001C500.981 213.001 500.293 214.143 500.293 215.553C500.293 216.962 500.981 218.105 501.831 218.105Z" fill="#FFB8B8"/>
<path d="M288.625 295.243H223.237V360.239H288.625V295.243Z" fill="#CCCCCC"/>
<path d="M256.793 439.625L255.67 453.277C255.619 453.895 255.717 454.516 255.958 455.097C256.199 455.678 256.577 456.207 257.067 456.648C257.557 457.089 258.147 457.432 258.798 457.653C259.449 457.875 260.146 457.97 260.841 457.932L268.729 457.508C269.095 457.488 269.451 457.397 269.772 457.241C270.094 457.085 270.373 456.868 270.589 456.606C270.806 456.343 270.955 456.041 271.025 455.722C271.096 455.402 271.086 455.073 270.997 454.757L266.619 439.188L256.793 439.625Z" fill="#3F3D56"/>
<path d="M322.772 447.698C332.056 449.629 338.688 452.373 343.044 456.087C344.596 457.399 346.626 458.173 348.765 458.267C351.497 458.394 353.731 458.122 355.41 457.455H355.411C355.841 457.287 356.212 457.019 356.487 456.68C356.761 456.341 356.928 455.942 356.971 455.526C357.022 455.104 356.944 454.676 356.747 454.289C356.55 453.902 356.239 453.569 355.848 453.324L333.831 439.398L324.478 442.724L322.297 444.663C322.061 444.873 321.882 445.129 321.776 445.411C321.67 445.692 321.639 445.992 321.685 446.286C321.731 446.58 321.853 446.861 322.042 447.106C322.231 447.351 322.481 447.554 322.772 447.698H322.772Z" fill="#3F3D56"/>
<path d="M294.203 224.801L231.268 224.283C231.426 216.134 233.559 208.132 238.221 200.972C241.283 196.269 241.217 191.151 240.479 186.84C239.34 180.186 241.988 173.378 247.872 169.142C252.368 165.9 258.043 164.23 263.828 164.449L265.05 164.494C269.031 164.641 272.906 165.675 276.32 167.5C279.734 169.326 282.577 171.884 284.589 174.941C286.634 178.204 287.459 181.961 286.944 185.669C286.545 189.157 287.5 192.681 289.732 196.238C293.584 204.049 294.418 214.045 294.203 224.801Z" fill="#2F2E41"/>
<path d="M336.309 440.124L323.957 442.989L263.811 326.505L267.57 440.124H255.218C242.02 386.67 218.191 324.977 228.904 305.5L292.81 302.158L336.309 440.124Z" fill="#ED5757"/>
<path d="M263.274 205.247C272.468 205.247 279.921 198.622 279.921 190.448C279.921 182.275 272.468 175.649 263.274 175.649C254.079 175.649 246.626 182.275 246.626 190.448C246.626 198.622 254.079 205.247 263.274 205.247Z" fill="#FFB9B9"/>
<path d="M277.773 217.66L250.385 216.227C253.069 210.751 254.141 205.477 253.07 200.474H273.477C273.431 204.315 275.582 210.961 277.773 217.66Z" fill="#FFB9B9"/>
<path d="M294.958 306.454L234.812 310.274L240.987 215.511L251.459 212.886L263.274 215.273L275.088 210.021L282.606 212.409L294.958 306.454Z" fill="#ED5757"/>
<path d="M245.015 374.722L203.932 366.367C216.148 330.356 238.156 247.973 231.052 218.614L252.533 210.021L245.015 374.722Z" fill="#E6E6E6"/>
<path d="M225.145 270.65L209.571 262.057L222.853 227.477C224.334 223.909 227.172 220.913 230.874 219.007L235.348 216.705L232.663 251.554L225.145 270.65Z" fill="#E6E6E6"/>
<path d="M330.67 366.845C317.704 373.513 285.292 377.231 271.061 372.573C270.013 340.037 267.96 248.003 274.551 209.067L298.18 217.66L296.032 243.439C284.736 265.491 317.539 342.301 330.67 366.845Z" fill="#E6E6E6"/>
<path d="M328.791 266.354L314.291 262.057L294.958 242.484L298.18 217.659L330.402 257.76L328.791 266.354Z" fill="#E6E6E6"/>
<path d="M283.349 284.935C283.586 285.861 284.226 286.665 285.13 287.171C286.033 287.678 287.125 287.845 288.167 287.637L300.475 285.159L298.696 278.175L286.388 280.652C285.346 280.862 284.44 281.431 283.871 282.234C283.301 283.038 283.113 284.009 283.349 284.935V284.935Z" fill="#FFB9B9"/>
<path d="M277.773 186.629C268.527 183.249 259.394 183.004 250.385 186.152L246.626 174.217H280.995L277.773 186.629Z" fill="#2F2E41"/>
<path d="M294.421 276.856L301.402 288.314C313.145 285.402 323.322 276.224 333.087 265.399L330.402 257.76L313.754 261.58L294.421 276.856Z" fill="#E6E6E6"/>
<path d="M289.319 253.225H287.171C287.171 226.217 280.916 207.396 274.82 207.396L274.283 205.486C279.75 205.486 283.235 213.319 285.196 219.891C287.855 228.8 289.319 240.638 289.319 253.225Z" fill="#3F3D56"/>
<path d="M239.913 246.542H237.765C237.765 221.807 244.064 206.441 253.339 206.441L252.802 208.35C246.386 208.35 239.913 220.16 239.913 246.542Z" fill="#3F3D56"/>
<path d="M288.245 258.477C291.211 258.477 293.616 256.339 293.616 253.703C293.616 251.066 291.211 248.929 288.245 248.929C285.279 248.929 282.875 251.066 282.875 253.703C282.875 256.339 285.279 258.477 288.245 258.477Z" fill="#3F3D56"/>
<path d="M231.321 257.999H229.173C229.173 251.155 233.509 245.587 238.839 245.587V247.497C234.693 247.497 231.321 252.208 231.321 257.999Z" fill="#3F3D56"/>
<path d="M248.505 257.999H246.357C246.357 252.208 242.985 247.497 238.839 247.497V245.587C244.169 245.587 248.505 251.155 248.505 257.999Z" fill="#3F3D56"/>
<path d="M247.431 260.386C248.618 260.386 249.58 259.531 249.58 258.477C249.58 257.422 248.618 256.567 247.431 256.567C246.245 256.567 245.283 257.422 245.283 258.477C245.283 259.531 246.245 260.386 247.431 260.386Z" fill="#3F3D56"/>
<path d="M230.247 260.386C231.433 260.386 232.395 259.531 232.395 258.477C232.395 257.422 231.433 256.567 230.247 256.567C229.06 256.567 228.099 257.422 228.099 258.477C228.099 259.531 229.06 260.386 230.247 260.386Z" fill="#3F3D56"/>
<path d="M203.395 240.917L216.798 243.044L247.431 281.765L231.157 278.361L203.395 240.917Z" fill="#ED5757"/>
<path d="M201.018 240.443C200.814 240.446 200.614 240.497 200.44 240.592C200.266 240.687 200.124 240.821 200.028 240.982C199.932 241.142 199.887 241.323 199.897 241.504C199.906 241.686 199.971 241.861 200.083 242.013L228.717 280.634C228.877 280.85 229.124 281.004 229.407 281.063L242.73 283.849C242.954 283.896 243.19 283.881 243.405 283.807C243.62 283.732 243.804 283.601 243.933 283.431C244.063 283.261 244.131 283.06 244.128 282.855C244.126 282.65 244.054 282.45 243.921 282.282L212.482 242.544C212.397 242.436 212.289 242.343 212.163 242.272C212.038 242.201 211.898 242.153 211.752 242.13L201.233 240.46C201.162 240.449 201.09 240.443 201.018 240.443V240.443Z" fill="#3F3D56"/>
<path d="M218.88 268.057L219.676 275.183L232.234 274.075C233.297 273.981 234.275 273.515 234.952 272.781C235.629 272.046 235.95 271.103 235.845 270.158C235.739 269.213 235.216 268.344 234.39 267.742C233.563 267.14 232.502 266.855 231.439 266.949L218.88 268.057Z" fill="#FFB9B9"/>
<path d="M207.96 267.231C207.979 269.661 209.076 271.986 211.014 273.7C212.953 275.413 215.574 276.376 218.307 276.379H220.372L221.876 265.242L209.428 261.258L207.96 267.231Z" fill="#E6E6E6"/>
</g>
<defs>
<clipPath id="clip0">
<rect x="312.199" y="175.776" width="299.183" height="219.901" fill="white"/>
</clipPath>
<clipPath id="clip1">
<rect x="181" y="109" width="450" height="350" fill="white"/>
</clipPath>
</defs>
</svg>
